<svg version="1.0" xmlns="http://www.w3.org/2000/svg"
 width="33" height="40" viewBox="0 0 2509.000000 2509.000000">

<g transform="translate(0.000000,2509.000000) scale(0.100000,-0.100000)"
fill="#8a08e1" stroke="none">
<path d="M3090 22489 c-396 -53 -731 -174 -1025 -371 -157 -106 -199 -141
-366 -308 -175 -175 -307 -357 -417 -575 -71 -142 -141 -343 -175 -500 -29
-138 -37 -193 -47 -336 -13 -198 -13 -14480 0 -14678 10 -151 18 -207 52 -356
66 -301 230 -637 433 -890 291 -363 717 -645 1155 -765 25 -7 59 -17 75 -22
29 -9 47 -13 225 -46 77 -14 920 -16 8630 -23 5204 -4 8586 -10 8650 -16 58
-5 143 -15 190 -22 47 -7 114 -16 150 -21 36 -5 94 -14 130 -20 36 -7 79 -14
95 -16 70 -10 261 -50 311 -65 17 -5 38 -9 47 -9 9 0 36 -6 59 -13 24 -8 68
-19 98 -26 59 -13 99 -25 227 -65 45 -14 91 -26 101 -26 10 0 22 -4 28 -8 5
-4 36 -16 69 -26 33 -10 67 -21 75 -26 9 -4 30 -11 48 -14 17 -4 34 -12 37
-17 4 -5 15 -9 26 -9 10 0 27 -4 37 -9 15 -8 41 -18 127 -51 89 -34 179 -70
260 -105 129 -56 466 -221 565 -276 30 -17 79 -45 108 -61 72 -40 319 -194
359 -224 17 -13 36 -24 41 -24 4 0 19 -11 32 -25 13 -14 28 -25 34 -25 6 0 23
-11 38 -25 15 -14 31 -25 35 -25 5 0 19 -10 33 -22 14 -13 52 -43 85 -67 33
-25 62 -47 65 -51 3 -3 15 -13 28 -22 12 -8 39 -30 60 -49 71 -64 160 -139
166 -139 3 0 6 1231 6 2735 l0 2735 -9194 0 c-8540 0 -9195 1 -9207 17 -12 14
-14 869 -14 5515 0 4877 2 5500 15 5508 9 6 869 9 2295 7 l2280 -2 5 -3710 5
-3710 2292 -3 2293 -2 2 3712 3 3713 2315 0 2315 0 3 -3712 2 -3713 2295 0
2295 0 0 4648 c0 4896 1 4714 -40 4922 -148 728 -642 1335 -1330 1633 -202 87
-436 148 -676 176 -113 14 -18815 13 -18914 0z m17912 -16380 c9 -5 28 -9 42
-9 14 0 27 -4 31 -9 3 -5 19 -12 35 -16 17 -4 30 -11 30 -16 0 -5 5 -9 11 -9
37 0 178 -134 214 -204 8 -14 20 -38 28 -53 32 -60 47 -136 47 -238 0 -168
-48 -285 -165 -400 -73 -73 -195 -145 -247 -145 -13 0 -29 -5 -35 -11 -12 -12
-208 -7 -268 8 -51 13 -130 50 -175 82 -34 24 -114 104 -135 133 -87 124 -124
274 -101 413 15 90 17 95 59 185 41 87 147 193 242 241 63 32 136 54 205 62
42 5 164 -5 182 -14z m1753 -1 c107 -28 176 -68 261 -153 63 -63 124 -150 124
-178 0 -9 5 -19 10 -22 6 -3 10 -16 10 -28 0 -12 7 -40 15 -62 17 -47 19 -144
4 -200 -6 -22 -13 -51 -15 -65 -3 -14 -22 -59 -42 -99 -53 -107 -144 -199
-249 -251 -45 -22 -92 -40 -105 -40 -13 0 -29 -5 -35 -11 -6 -6 -50 -9 -119
-6 -152 6 -197 18 -304 85 -118 75 -204 194 -250 347 -13 46 -9 230 7 285 49
174 193 324 368 385 94 33 226 38 320 13z"/>
</g>
</svg>
